<svg width="32" height="32" viewBox="0 0 32 32" fill="none" xmlns="http://www.w3.org/2000/svg">
<g clip-path="url(#clip0_7527_4217)">
<path d="M9.14314 14.8342L1.80599 22.1028C1.59176 22.3153 1.42171 22.5681 1.30567 22.8466C1.18963 23.1252 1.12988 23.4239 1.12988 23.7257C1.12988 24.0274 1.18963 24.3262 1.30567 24.6047C1.42171 24.8832 1.59176 25.136 1.80599 25.3485L6.65171 30.1942C6.86419 30.4085 7.117 30.5785 7.39553 30.6946C7.67407 30.8106 7.97282 30.8703 8.27456 30.8703C8.57631 30.8703 8.87506 30.8106 9.1536 30.6946C9.43213 30.5785 9.68494 30.4085 9.89742 30.1942L17.166 22.8571" stroke="#C0C4CC" stroke-width="2" stroke-linecap="round" stroke-linejoin="round"/>
<path d="M22.8578 17.1658L30.1264 9.89718C30.3406 9.68469 30.5107 9.43189 30.6267 9.15335C30.7428 8.87482 30.8025 8.57606 30.8025 8.27432C30.8025 7.97258 30.7428 7.67382 30.6267 7.39529C30.5107 7.11675 30.3406 6.86395 30.1264 6.65146L25.3492 1.80575C25.1368 1.59151 24.884 1.42147 24.6054 1.30543C24.3269 1.18938 24.0281 1.12964 23.7264 1.12964C23.4246 1.12964 23.1259 1.18938 22.8474 1.30543C22.5688 1.42147 22.316 1.59151 22.1035 1.80575L14.835 9.14289" stroke="#C0C4CC" stroke-width="2" stroke-linecap="round" stroke-linejoin="round"/>
<path d="M20.5716 11.4287L11.4287 20.5716" stroke="#C0C4CC" stroke-width="2" stroke-linecap="round" stroke-linejoin="round"/>
</g>
<defs>
<clipPath id="clip0_7527_4217">
<rect width="32" height="32" fill="white"/>
</clipPath>
</defs>
</svg>
