<svg width="32" height="32" viewBox="0 0 32 32" fill="none" xmlns="http://www.w3.org/2000/svg">
<g clip-path="url(#clip0_7537_2733)">
<path d="M21.859 16L13.3337 10.316V21.684L21.859 16ZM25.835 16.5547L11.703 25.976C11.6026 26.0428 11.486 26.0811 11.3655 26.0869C11.2451 26.0927 11.1253 26.0656 11.019 26.0087C10.9127 25.9518 10.8238 25.8671 10.7618 25.7637C10.6998 25.6602 10.6671 25.5419 10.667 25.4213V6.57868C10.6671 6.45809 10.6998 6.33977 10.7618 6.23633C10.8238 6.1329 10.9127 6.04821 11.019 5.99129C11.1253 5.93437 11.2451 5.90735 11.3655 5.91312C11.486 5.91888 11.6026 5.9572 11.703 6.02401L25.835 15.4453C25.9263 15.5062 26.0012 15.5887 26.0529 15.6855C26.1047 15.7822 26.1318 15.8903 26.1318 16C26.1318 16.1098 26.1047 16.2178 26.0529 16.3146C26.0012 16.4113 25.9263 16.4938 25.835 16.5547Z" fill="#E3FD16"/>
</g>
<defs>
<clipPath id="clip0_7537_2733">
<rect width="32" height="32" fill="white"/>
</clipPath>
</defs>
</svg>
