<svg width="93" height="21" viewBox="0 0 93 21" fill="none" xmlns="http://www.w3.org/2000/svg">
<path d="M0.976 16.176V7.168H2.384V5.792H7.248V7.168H8.672V12.064H7.248V13.44H6.56V14H7.952V16.176H5.936V14.816H4.496V13.44H3.008V16.176H0.976ZM3.008 11.248H6.624V7.984H3.008V11.248ZM12.3446 16.176V14.816H10.9366V7.168H12.3446V5.792H17.2086V7.168H18.6326V9.344H16.5846V7.984H12.9686V9.904H15.8006V12.064H12.9686V14H16.5846V12.624H18.6326V14.816H17.2086V16.176H12.3446ZM22.3052 16.176V14.816H20.8972V12.624H22.9292V14H26.5452V12.064H22.3052V10.704H20.8972V7.168H22.3052V5.792H27.1692V7.168H28.5933V9.344H26.5452V7.984H22.9292V9.904H27.1692V11.248H28.5933V14.816H27.1692V16.176H22.3052ZM33.3614 16.176V7.984H32.5774V9.344H30.5454V7.168H31.9534V5.792H36.8174V7.168H38.2414V9.344H36.1934V7.984H35.4094V16.176H33.3614ZM40.442 16.192L45.53 5.904H47.386L42.298 16.192H40.442ZM52.2556 11.044H56.4556V16H54.7756V14.908H54.5236C54.4116 15.272 54.197 15.58 53.8796 15.832C53.5623 16.0747 53.0863 16.196 52.4516 16.196C52.0036 16.196 51.5836 16.112 51.1916 15.944C50.7996 15.776 50.459 15.5287 50.1696 15.202C49.8803 14.866 49.6516 14.4553 49.4836 13.97C49.3156 13.4753 49.2316 12.9013 49.2316 12.248V9.952C49.2316 9.31733 49.3203 8.75733 49.4976 8.272C49.6843 7.77733 49.9363 7.362 50.2536 7.026C50.5803 6.69 50.9676 6.438 51.4156 6.27C51.8636 6.09267 52.3583 6.004 52.8996 6.004C53.4596 6.004 53.959 6.09733 54.3976 6.284C54.8363 6.46133 55.2096 6.71333 55.5176 7.04C55.8256 7.35733 56.059 7.73533 56.2176 8.174C56.3763 8.60333 56.4556 9.06533 56.4556 9.56V9.728H54.6076V9.56C54.6076 8.972 54.4536 8.52867 54.1456 8.23C53.847 7.922 53.4223 7.768 52.8716 7.768C52.349 7.768 51.9196 7.94533 51.5836 8.3C51.2476 8.64533 51.0796 9.24267 51.0796 10.092V12.164C51.0796 13.676 51.6956 14.432 52.9276 14.432C53.4783 14.432 53.8936 14.2873 54.1736 13.998C54.463 13.6993 54.6076 13.3027 54.6076 12.808H52.2556V11.044ZM65.0699 16H63.2219V13.06C63.2219 12.836 63.1612 12.654 63.0399 12.514C62.9279 12.374 62.7366 12.304 62.4659 12.304H60.3379V16H58.4899V6.2H62.2419C62.7459 6.2 63.1892 6.27 63.5719 6.41C63.9546 6.55 64.2719 6.746 64.5239 6.998C64.7852 7.24067 64.9812 7.52533 65.1119 7.852C65.2519 8.17867 65.3219 8.52867 65.3219 8.902V9.238C65.3219 9.63933 65.2146 10.0173 64.9999 10.372C64.7852 10.7173 64.4539 10.9833 64.0059 11.17V11.422C64.3326 11.4593 64.5892 11.5853 64.7759 11.8C64.9719 12.0147 65.0699 12.2853 65.0699 12.612V16ZM60.3379 10.54H62.1019C62.5499 10.54 62.8906 10.4373 63.1239 10.232C63.3572 10.0173 63.4739 9.71867 63.4739 9.336V9.168C63.4739 8.84133 63.3572 8.56133 63.1239 8.328C62.8906 8.08533 62.5499 7.964 62.1019 7.964H60.3379V10.54ZM72.2702 13.9H68.9382L68.4622 16H66.5302L68.8682 6.2H72.3402L74.6782 16H72.7462L72.2702 13.9ZM69.3302 12.136H71.8642L70.7302 7.124H70.4782L69.3302 12.136ZM78.0284 12.304V16H76.1804V6.2H80.0164C80.5204 6.2 80.9591 6.284 81.3324 6.452C81.7058 6.61067 82.0138 6.82533 82.2564 7.096C82.5084 7.35733 82.6951 7.66067 82.8164 8.006C82.9471 8.342 83.0124 8.68733 83.0124 9.042V9.378C83.0124 9.742 82.9471 10.1013 82.8164 10.456C82.6951 10.8013 82.5084 11.114 82.2564 11.394C82.0138 11.6647 81.7058 11.884 81.3324 12.052C80.9591 12.22 80.5204 12.304 80.0164 12.304H78.0284ZM78.0284 10.54H79.8344C80.2451 10.54 80.5671 10.428 80.8004 10.204C81.0431 9.98 81.1644 9.69067 81.1644 9.336V9.168C81.1644 8.81333 81.0431 8.524 80.8004 8.3C80.5671 8.076 80.2451 7.964 79.8344 7.964H78.0284V10.54ZM84.8787 6.2H86.7267V10.204H89.8907V6.2H91.7387V16H89.8907V11.968H86.7267V16H84.8787V6.2Z" fill="#E3FD16"/>
</svg>
